<svg xmlns="http://www.w3.org/2000/svg" version="1.1" xmlns:xlink="http://www.w3.org/1999/xlink" width="110" height="110"><svg width="110" height="110" viewBox="0 0 110 110" fill="none" xmlns="http://www.w3.org/2000/svg">
<g clip-path="url(#clip0_11612_22248)">
<path d="M14.3762 97.8856C11.6409 95.661 9.11039 93.4029 6.82463 90.8729C5.90287 89.8527 5.66915 88.8794 6.56066 87.7555C6.633 87.6643 6.67256 87.5457 6.7495 87.4597C9.98976 83.8373 10.4099 79.5211 10.2829 74.869C10.0607 66.731 10.0644 58.5796 10.2398 50.4395C10.5538 35.8624 16.096 23.7465 27.7856 14.7363C32.674 10.9684 38.1579 8.413 44.2584 7.27043C45.1708 7.09955 45.8088 6.59973 46.3748 5.85299C48.0545 3.63684 50.0597 1.78155 52.574 0.506038C53.8156 -0.123863 54.9576 -0.182072 56.2518 0.423732C58.7252 1.58146 60.5904 3.4044 62.129 5.57522C62.8279 6.56134 63.6699 7.06101 64.8245 7.307C81.5943 10.8798 94.7984 24.6028 97.949 41.6408C98.5994 45.158 98.9547 48.6877 98.9492 52.2634C98.9353 61.3448 98.9769 70.4263 98.9293 79.5074C98.9201 81.2709 99.1483 82.8736 100.315 84.2565C100.54 84.5221 100.699 84.8436 100.879 85.1446C103.751 89.9337 104.531 88.5467 99.9846 93.1853C93.1923 100.115 85.0014 105.146 76.4281 109.566C74.5862 110.516 73.7371 110.005 73.8045 107.945C74.1548 97.2366 74.4089 86.5267 74.4825 75.8127C74.4921 74.4197 75.2488 73.5406 76.4837 72.9893C79.3706 71.7006 82.2191 70.3201 85.1408 69.1168C87.6234 68.0943 88.8213 66.2411 88.8536 63.6929C88.928 57.8349 88.9341 51.9746 88.8573 46.1167C88.8044 42.0756 85.8703 40.0097 81.8739 41.2522C73.9441 43.7177 66.0274 46.2319 58.1603 48.8891C55.6325 49.7429 53.3674 49.6918 50.8543 48.836C43.3285 46.2728 35.7331 43.9142 28.166 41.4721C26.7008 40.9992 25.2087 40.6514 23.6867 41.0727C21.6983 41.623 20.2763 43.7555 20.2457 46.4724C20.1809 52.2135 20.1499 57.9572 20.2607 63.6968C20.3104 66.2671 21.4844 68.2147 24.0928 69.2315C26.9258 70.3359 29.6456 71.7273 32.4437 72.9259C33.9152 73.5563 34.6765 74.5734 34.6257 76.1704C34.402 83.2 35.0823 90.2122 35.0107 97.2413C34.975 100.75 35.24 104.262 35.3009 107.773C35.3405 110.049 34.4998 110.564 32.4971 109.498C26.1819 106.137 20.0452 102.491 14.3762 97.8856Z" fill="black"></path>
<path d="M65.7995 82.2703C64.7358 82.8042 64.0017 84.0998 62.7724 83.4866C61.7053 82.9544 62.0282 81.687 62.0261 80.7652C62.0098 73.9827 62.0951 67.2 62.1244 60.4173C62.1297 59.203 62.6469 58.4278 63.7833 58.0249C67.2004 56.8133 70.6018 55.5561 74.0335 54.3875C75.8364 53.7735 76.4389 54.2256 76.4593 56.0875C76.4882 58.7227 76.4653 61.3584 76.4648 63.9938C76.4644 65.6079 75.8728 66.7429 74.2358 67.3636C72.3796 68.0674 70.6165 69.014 68.7963 69.8174C67.9116 70.2079 67.71 70.862 67.656 71.7724C67.4869 74.6275 67.1816 77.4744 67.0002 80.329C66.9456 81.1886 66.6074 81.7666 65.7995 82.2703Z" fill="black"></path>
<path d="M41.9326 56.8948C47.6308 59.0726 46.9063 57.9118 46.9332 64.1006C46.9585 69.892 46.944 75.6835 46.9303 81.475C46.9286 82.2054 47.1362 83.0461 46.2464 83.4852C45.3844 83.9105 44.8543 83.2117 44.185 82.903C42.0494 81.9179 41.9417 79.9646 41.7977 78.0395C41.6365 75.8866 41.4926 73.7302 41.4343 71.5728C41.4078 70.5941 40.939 70.0739 40.1315 69.706C38.2696 68.8578 36.4259 67.9678 34.5479 67.1572C33.2047 66.5775 32.5799 65.6653 32.6163 64.1681C32.6817 61.4788 32.6155 58.7865 32.6387 56.0957C32.6552 54.1887 33.1863 53.8067 35.0346 54.4331C37.3034 55.202 39.5468 56.0458 41.9326 56.8948Z" fill="black"></path>
</g>
<defs>
<clipPath id="SvgjsClipPath1031">
<rect width="110" height="110" fill="white"></rect>
</clipPath>
</defs>
</svg><style>@media (prefers-color-scheme: light) { :root { filter: none; } }
@media (prefers-color-scheme: dark) { :root { filter: invert(100%); } }
</style></svg>